<mxfile host="app.diagrams.net" agent="Mozilla/5.0 (Windows NT 10.0; Win64; x64) AppleWebKit/537.36 (KHTML, like Gecko) Chrome/135.0.0.0 Safari/537.36 Edg/135.0.0.0" version="26.2.9">
  <diagram name="第 1 页" id="seyzkeZ7yCL_QnJ9LsVM">
    <mxGraphModel dx="1480" dy="766" grid="1" gridSize="10" guides="1" tooltips="1" connect="1" arrows="1" fold="1" page="1" pageScale="1" pageWidth="827" pageHeight="1169" math="0" shadow="0">
      <root>
        <mxCell id="0" />
        <mxCell id="1" parent="0" />
        <mxCell id="Fukh44lObKqDawehAdnI-3" value="" style="edgeStyle=orthogonalEdgeStyle;rounded=0;orthogonalLoop=1;jettySize=auto;html=1;" parent="1" source="Fukh44lObKqDawehAdnI-1" target="Fukh44lObKqDawehAdnI-2" edge="1">
          <mxGeometry relative="1" as="geometry" />
        </mxCell>
        <mxCell id="Fukh44lObKqDawehAdnI-5" value="" style="edgeStyle=orthogonalEdgeStyle;rounded=0;orthogonalLoop=1;jettySize=auto;html=1;" parent="1" source="Fukh44lObKqDawehAdnI-1" target="Fukh44lObKqDawehAdnI-4" edge="1">
          <mxGeometry relative="1" as="geometry" />
        </mxCell>
        <mxCell id="Fukh44lObKqDawehAdnI-1" value="审批处理" style="rounded=0;whiteSpace=wrap;html=1;" parent="1" vertex="1">
          <mxGeometry width="120" height="60" as="geometry" />
        </mxCell>
        <mxCell id="Fukh44lObKqDawehAdnI-2" value="&lt;div style=&quot;display: flex; line-height: 20px; padding-left: 8px; gap: 12px; user-select: text; margin-top: 2px; color: rgb(31, 31, 31); font-family: system-ui, sans-serif; text-align: start; background-color: rgb(255, 255, 255);&quot; class=&quot;row&quot;&gt;&lt;div style=&quot;word-break: break-all; display: flex; align-items: center; gap: 2px;&quot; class=&quot;header-value&quot;&gt;/transaApproval/updateApproval&lt;/div&gt;&lt;/div&gt;" style="whiteSpace=wrap;html=1;rounded=0;" parent="1" vertex="1">
          <mxGeometry x="170" width="120" height="60" as="geometry" />
        </mxCell>
        <mxCell id="Fukh44lObKqDawehAdnI-7" value="" style="edgeStyle=orthogonalEdgeStyle;rounded=0;orthogonalLoop=1;jettySize=auto;html=1;" parent="1" source="Fukh44lObKqDawehAdnI-4" target="Fukh44lObKqDawehAdnI-6" edge="1">
          <mxGeometry relative="1" as="geometry" />
        </mxCell>
        <mxCell id="Fukh44lObKqDawehAdnI-4" value="排序" style="whiteSpace=wrap;html=1;rounded=0;" parent="1" vertex="1">
          <mxGeometry y="90" width="120" height="60" as="geometry" />
        </mxCell>
        <mxCell id="Fukh44lObKqDawehAdnI-9" value="" style="edgeStyle=orthogonalEdgeStyle;rounded=0;orthogonalLoop=1;jettySize=auto;html=1;" parent="1" source="Fukh44lObKqDawehAdnI-6" target="Fukh44lObKqDawehAdnI-8" edge="1">
          <mxGeometry relative="1" as="geometry" />
        </mxCell>
        <mxCell id="Fukh44lObKqDawehAdnI-6" value="更新审批" style="whiteSpace=wrap;html=1;rounded=0;" parent="1" vertex="1">
          <mxGeometry y="180" width="120" height="60" as="geometry" />
        </mxCell>
        <mxCell id="Fukh44lObKqDawehAdnI-11" value="" style="edgeStyle=orthogonalEdgeStyle;rounded=0;orthogonalLoop=1;jettySize=auto;html=1;" parent="1" source="Fukh44lObKqDawehAdnI-8" target="Fukh44lObKqDawehAdnI-10" edge="1">
          <mxGeometry relative="1" as="geometry" />
        </mxCell>
        <mxCell id="DngOZoNdHVbktWOdV5pQ-2" value="" style="edgeStyle=orthogonalEdgeStyle;rounded=0;orthogonalLoop=1;jettySize=auto;html=1;" edge="1" parent="1" source="Fukh44lObKqDawehAdnI-8" target="DngOZoNdHVbktWOdV5pQ-1">
          <mxGeometry relative="1" as="geometry" />
        </mxCell>
        <mxCell id="Fukh44lObKqDawehAdnI-8" value="审批类型处理" style="whiteSpace=wrap;html=1;rounded=0;" parent="1" vertex="1">
          <mxGeometry x="170" y="180" width="120" height="60" as="geometry" />
        </mxCell>
        <mxCell id="Fukh44lObKqDawehAdnI-13" value="" style="edgeStyle=orthogonalEdgeStyle;rounded=0;orthogonalLoop=1;jettySize=auto;html=1;" parent="1" source="Fukh44lObKqDawehAdnI-10" target="Fukh44lObKqDawehAdnI-12" edge="1">
          <mxGeometry relative="1" as="geometry" />
        </mxCell>
        <mxCell id="DngOZoNdHVbktWOdV5pQ-4" value="" style="edgeStyle=orthogonalEdgeStyle;rounded=0;orthogonalLoop=1;jettySize=auto;html=1;" edge="1" parent="1" source="Fukh44lObKqDawehAdnI-10" target="DngOZoNdHVbktWOdV5pQ-3">
          <mxGeometry relative="1" as="geometry" />
        </mxCell>
        <mxCell id="Fukh44lObKqDawehAdnI-10" value="根据交易类型分组" style="whiteSpace=wrap;html=1;rounded=0;" parent="1" vertex="1">
          <mxGeometry x="170" y="260" width="120" height="60" as="geometry" />
        </mxCell>
        <mxCell id="Fukh44lObKqDawehAdnI-15" value="" style="edgeStyle=orthogonalEdgeStyle;rounded=0;orthogonalLoop=1;jettySize=auto;html=1;" parent="1" source="Fukh44lObKqDawehAdnI-12" target="Fukh44lObKqDawehAdnI-14" edge="1">
          <mxGeometry relative="1" as="geometry" />
        </mxCell>
        <mxCell id="Fukh44lObKqDawehAdnI-12" value="查询交易历史数据" style="whiteSpace=wrap;html=1;rounded=0;" parent="1" vertex="1">
          <mxGeometry x="170" y="350" width="120" height="60" as="geometry" />
        </mxCell>
        <mxCell id="DngOZoNdHVbktWOdV5pQ-6" value="" style="edgeStyle=orthogonalEdgeStyle;rounded=0;orthogonalLoop=1;jettySize=auto;html=1;" edge="1" parent="1" source="Fukh44lObKqDawehAdnI-14" target="DngOZoNdHVbktWOdV5pQ-5">
          <mxGeometry relative="1" as="geometry" />
        </mxCell>
        <mxCell id="DngOZoNdHVbktWOdV5pQ-8" value="" style="edgeStyle=orthogonalEdgeStyle;rounded=0;orthogonalLoop=1;jettySize=auto;html=1;" edge="1" parent="1" source="Fukh44lObKqDawehAdnI-14" target="DngOZoNdHVbktWOdV5pQ-7">
          <mxGeometry relative="1" as="geometry" />
        </mxCell>
        <mxCell id="Fukh44lObKqDawehAdnI-14" value="查询当前人员所处的审批节点" style="whiteSpace=wrap;html=1;rounded=0;fontColor=light-dark(#16a278, #ededed);" parent="1" vertex="1">
          <mxGeometry x="170" y="450" width="120" height="60" as="geometry" />
        </mxCell>
        <mxCell id="Fukh44lObKqDawehAdnI-19" value="" style="edgeStyle=orthogonalEdgeStyle;rounded=0;orthogonalLoop=1;jettySize=auto;html=1;" parent="1" source="Fukh44lObKqDawehAdnI-16" target="Fukh44lObKqDawehAdnI-18" edge="1">
          <mxGeometry relative="1" as="geometry" />
        </mxCell>
        <mxCell id="Fukh44lObKqDawehAdnI-22" style="edgeStyle=orthogonalEdgeStyle;rounded=0;orthogonalLoop=1;jettySize=auto;html=1;exitX=1;exitY=0.5;exitDx=0;exitDy=0;entryX=0;entryY=0.5;entryDx=0;entryDy=0;" parent="1" source="Fukh44lObKqDawehAdnI-16" target="Fukh44lObKqDawehAdnI-20" edge="1">
          <mxGeometry relative="1" as="geometry" />
        </mxCell>
        <mxCell id="Fukh44lObKqDawehAdnI-23" style="edgeStyle=orthogonalEdgeStyle;rounded=0;orthogonalLoop=1;jettySize=auto;html=1;exitX=1;exitY=0.5;exitDx=0;exitDy=0;entryX=0;entryY=0.5;entryDx=0;entryDy=0;" parent="1" source="Fukh44lObKqDawehAdnI-16" target="Fukh44lObKqDawehAdnI-21" edge="1">
          <mxGeometry relative="1" as="geometry" />
        </mxCell>
        <mxCell id="DngOZoNdHVbktWOdV5pQ-11" value="" style="edgeStyle=orthogonalEdgeStyle;rounded=0;orthogonalLoop=1;jettySize=auto;html=1;" edge="1" parent="1" source="Fukh44lObKqDawehAdnI-16" target="DngOZoNdHVbktWOdV5pQ-10">
          <mxGeometry relative="1" as="geometry" />
        </mxCell>
        <mxCell id="Fukh44lObKqDawehAdnI-16" value="&lt;font style=&quot;color: light-dark(rgb(28, 23, 23), rgb(237, 237, 237));&quot;&gt;approvalDire&lt;/font&gt;" style="whiteSpace=wrap;html=1;fontColor=light-dark(#16a278, #ededed);rounded=0;" parent="1" vertex="1">
          <mxGeometry x="170" y="660" width="120" height="60" as="geometry" />
        </mxCell>
        <mxCell id="DngOZoNdHVbktWOdV5pQ-15" value="" style="edgeStyle=orthogonalEdgeStyle;rounded=0;orthogonalLoop=1;jettySize=auto;html=1;" edge="1" parent="1" source="Fukh44lObKqDawehAdnI-18" target="DngOZoNdHVbktWOdV5pQ-14">
          <mxGeometry relative="1" as="geometry" />
        </mxCell>
        <mxCell id="Fukh44lObKqDawehAdnI-18" value="审批通过" style="whiteSpace=wrap;html=1;fontColor=light-dark(#231010, #ededed);rounded=0;" parent="1" vertex="1">
          <mxGeometry x="370" y="640" width="120" height="60" as="geometry" />
        </mxCell>
        <mxCell id="Fukh44lObKqDawehAdnI-20" value="审批驳回" style="rounded=0;whiteSpace=wrap;html=1;" parent="1" vertex="1">
          <mxGeometry x="370" y="730" width="120" height="60" as="geometry" />
        </mxCell>
        <mxCell id="Fukh44lObKqDawehAdnI-21" value="折扣修改" style="rounded=0;whiteSpace=wrap;html=1;" parent="1" vertex="1">
          <mxGeometry x="370" y="820" width="120" height="60" as="geometry" />
        </mxCell>
        <mxCell id="DngOZoNdHVbktWOdV5pQ-1" value="终止审批/提交审批" style="whiteSpace=wrap;html=1;rounded=0;" vertex="1" parent="1">
          <mxGeometry x="330" y="180" width="120" height="60" as="geometry" />
        </mxCell>
        <mxCell id="DngOZoNdHVbktWOdV5pQ-3" value="只看质押券" style="whiteSpace=wrap;html=1;rounded=0;" vertex="1" parent="1">
          <mxGeometry x="330" y="260" width="120" height="60" as="geometry" />
        </mxCell>
        <mxCell id="DngOZoNdHVbktWOdV5pQ-5" value="根据流程ID分组" style="whiteSpace=wrap;html=1;fontColor=light-dark(#16a278, #ededed);rounded=0;" vertex="1" parent="1">
          <mxGeometry y="450" width="120" height="60" as="geometry" />
        </mxCell>
        <mxCell id="DngOZoNdHVbktWOdV5pQ-9" style="edgeStyle=orthogonalEdgeStyle;rounded=0;orthogonalLoop=1;jettySize=auto;html=1;exitX=0.5;exitY=1;exitDx=0;exitDy=0;entryX=0.5;entryY=0;entryDx=0;entryDy=0;" edge="1" parent="1" source="DngOZoNdHVbktWOdV5pQ-7" target="Fukh44lObKqDawehAdnI-16">
          <mxGeometry relative="1" as="geometry" />
        </mxCell>
        <mxCell id="DngOZoNdHVbktWOdV5pQ-7" value="查找了重复数据但未处理" style="whiteSpace=wrap;html=1;fontColor=light-dark(#16a278, #ededed);rounded=0;" vertex="1" parent="1">
          <mxGeometry x="170" y="550" width="120" height="60" as="geometry" />
        </mxCell>
        <mxCell id="DngOZoNdHVbktWOdV5pQ-13" style="edgeStyle=orthogonalEdgeStyle;rounded=0;orthogonalLoop=1;jettySize=auto;html=1;exitX=0.5;exitY=1;exitDx=0;exitDy=0;entryX=0.5;entryY=0;entryDx=0;entryDy=0;" edge="1" parent="1" source="DngOZoNdHVbktWOdV5pQ-10" target="DngOZoNdHVbktWOdV5pQ-12">
          <mxGeometry relative="1" as="geometry" />
        </mxCell>
        <mxCell id="DngOZoNdHVbktWOdV5pQ-10" value="收集交易ID" style="whiteSpace=wrap;html=1;fontColor=light-dark(#322f2f, #ededed);rounded=0;" vertex="1" parent="1">
          <mxGeometry y="660" width="120" height="60" as="geometry" />
        </mxCell>
        <mxCell id="DngOZoNdHVbktWOdV5pQ-12" value="收集交易历史数据" style="rounded=0;whiteSpace=wrap;html=1;" vertex="1" parent="1">
          <mxGeometry y="750" width="120" height="60" as="geometry" />
        </mxCell>
        <mxCell id="DngOZoNdHVbktWOdV5pQ-17" value="" style="edgeStyle=orthogonalEdgeStyle;rounded=0;orthogonalLoop=1;jettySize=auto;html=1;" edge="1" parent="1" source="DngOZoNdHVbktWOdV5pQ-14" target="DngOZoNdHVbktWOdV5pQ-16">
          <mxGeometry relative="1" as="geometry" />
        </mxCell>
        <mxCell id="DngOZoNdHVbktWOdV5pQ-14" value="封装流程定义节点" style="whiteSpace=wrap;html=1;fontColor=light-dark(#231010, #ededed);rounded=0;" vertex="1" parent="1">
          <mxGeometry x="570" y="640" width="120" height="60" as="geometry" />
        </mxCell>
        <mxCell id="DngOZoNdHVbktWOdV5pQ-19" value="" style="edgeStyle=orthogonalEdgeStyle;rounded=0;orthogonalLoop=1;jettySize=auto;html=1;" edge="1" parent="1" source="DngOZoNdHVbktWOdV5pQ-16" target="DngOZoNdHVbktWOdV5pQ-18">
          <mxGeometry relative="1" as="geometry" />
        </mxCell>
        <mxCell id="DngOZoNdHVbktWOdV5pQ-16" value="判断业务中是否存在已经被处理的业务" style="whiteSpace=wrap;html=1;fontColor=light-dark(#231010, #ededed);rounded=0;" vertex="1" parent="1">
          <mxGeometry x="570" y="730" width="120" height="60" as="geometry" />
        </mxCell>
        <mxCell id="DngOZoNdHVbktWOdV5pQ-21" value="" style="edgeStyle=orthogonalEdgeStyle;rounded=0;orthogonalLoop=1;jettySize=auto;html=1;" edge="1" parent="1" source="DngOZoNdHVbktWOdV5pQ-18" target="DngOZoNdHVbktWOdV5pQ-20">
          <mxGeometry relative="1" as="geometry" />
        </mxCell>
        <mxCell id="DngOZoNdHVbktWOdV5pQ-18" value="调用流程下一步&lt;div&gt;更改审批节点状态&lt;/div&gt;" style="whiteSpace=wrap;html=1;fontColor=light-dark(#231010, #ededed);rounded=0;" vertex="1" parent="1">
          <mxGeometry x="570" y="820" width="120" height="60" as="geometry" />
        </mxCell>
        <mxCell id="DngOZoNdHVbktWOdV5pQ-23" value="" style="edgeStyle=orthogonalEdgeStyle;rounded=0;orthogonalLoop=1;jettySize=auto;html=1;" edge="1" parent="1" source="DngOZoNdHVbktWOdV5pQ-20" target="DngOZoNdHVbktWOdV5pQ-22">
          <mxGeometry relative="1" as="geometry" />
        </mxCell>
        <mxCell id="DngOZoNdHVbktWOdV5pQ-20" value="清除审核数据" style="whiteSpace=wrap;html=1;fontColor=light-dark(#231010, #ededed);rounded=0;" vertex="1" parent="1">
          <mxGeometry x="570" y="920" width="120" height="60" as="geometry" />
        </mxCell>
        <mxCell id="DngOZoNdHVbktWOdV5pQ-25" value="" style="edgeStyle=orthogonalEdgeStyle;rounded=0;orthogonalLoop=1;jettySize=auto;html=1;" edge="1" parent="1" source="DngOZoNdHVbktWOdV5pQ-22" target="DngOZoNdHVbktWOdV5pQ-24">
          <mxGeometry relative="1" as="geometry" />
        </mxCell>
        <mxCell id="DngOZoNdHVbktWOdV5pQ-22" value="发送通知" style="whiteSpace=wrap;html=1;fontColor=light-dark(#231010, #ededed);rounded=0;" vertex="1" parent="1">
          <mxGeometry x="570" y="1030" width="120" height="60" as="geometry" />
        </mxCell>
        <mxCell id="DngOZoNdHVbktWOdV5pQ-27" value="" style="edgeStyle=orthogonalEdgeStyle;rounded=0;orthogonalLoop=1;jettySize=auto;html=1;" edge="1" parent="1" source="DngOZoNdHVbktWOdV5pQ-24" target="DngOZoNdHVbktWOdV5pQ-26">
          <mxGeometry relative="1" as="geometry" />
        </mxCell>
        <mxCell id="DngOZoNdHVbktWOdV5pQ-24" value="清理本人通知" style="whiteSpace=wrap;html=1;fontColor=light-dark(#231010, #ededed);rounded=0;" vertex="1" parent="1">
          <mxGeometry x="570" y="1120" width="120" height="60" as="geometry" />
        </mxCell>
        <mxCell id="DngOZoNdHVbktWOdV5pQ-29" value="" style="edgeStyle=orthogonalEdgeStyle;rounded=0;orthogonalLoop=1;jettySize=auto;html=1;" edge="1" parent="1" source="DngOZoNdHVbktWOdV5pQ-26" target="DngOZoNdHVbktWOdV5pQ-28">
          <mxGeometry relative="1" as="geometry" />
        </mxCell>
        <mxCell id="DngOZoNdHVbktWOdV5pQ-35" value="" style="edgeStyle=orthogonalEdgeStyle;rounded=0;orthogonalLoop=1;jettySize=auto;html=1;" edge="1" parent="1" source="DngOZoNdHVbktWOdV5pQ-26" target="DngOZoNdHVbktWOdV5pQ-34">
          <mxGeometry relative="1" as="geometry" />
        </mxCell>
        <mxCell id="DngOZoNdHVbktWOdV5pQ-26" value="信评折扣修改保存历史记录&lt;div&gt;历史审批静态数据&lt;/div&gt;" style="whiteSpace=wrap;html=1;fontColor=light-dark(#231010, #ededed);rounded=0;" vertex="1" parent="1">
          <mxGeometry x="570" y="1220" width="120" height="60" as="geometry" />
        </mxCell>
        <mxCell id="DngOZoNdHVbktWOdV5pQ-31" value="" style="edgeStyle=orthogonalEdgeStyle;rounded=0;orthogonalLoop=1;jettySize=auto;html=1;" edge="1" parent="1" source="DngOZoNdHVbktWOdV5pQ-28" target="DngOZoNdHVbktWOdV5pQ-30">
          <mxGeometry relative="1" as="geometry" />
        </mxCell>
        <mxCell id="DngOZoNdHVbktWOdV5pQ-28" value="查询流程历史数据" style="whiteSpace=wrap;html=1;fontColor=light-dark(#231010, #ededed);rounded=0;" vertex="1" parent="1">
          <mxGeometry x="750" y="1220" width="120" height="60" as="geometry" />
        </mxCell>
        <mxCell id="DngOZoNdHVbktWOdV5pQ-33" value="" style="edgeStyle=orthogonalEdgeStyle;rounded=0;orthogonalLoop=1;jettySize=auto;html=1;" edge="1" parent="1" source="DngOZoNdHVbktWOdV5pQ-30" target="DngOZoNdHVbktWOdV5pQ-32">
          <mxGeometry relative="1" as="geometry" />
        </mxCell>
        <mxCell id="DngOZoNdHVbktWOdV5pQ-30" value="质押式逆回购&lt;div&gt;数据封装返回&lt;/div&gt;" style="whiteSpace=wrap;html=1;fontColor=light-dark(#231010, #ededed);rounded=0;" vertex="1" parent="1">
          <mxGeometry x="750" y="1320" width="120" height="60" as="geometry" />
        </mxCell>
        <mxCell id="DngOZoNdHVbktWOdV5pQ-32" value="信评逆回购债券折扣历史记录&lt;div&gt;移除&amp;amp;批量保存&lt;/div&gt;" style="whiteSpace=wrap;html=1;fontColor=light-dark(#231010, #ededed);rounded=0;" vertex="1" parent="1">
          <mxGeometry x="750" y="1410" width="120" height="60" as="geometry" />
        </mxCell>
        <mxCell id="DngOZoNdHVbktWOdV5pQ-37" value="" style="edgeStyle=orthogonalEdgeStyle;rounded=0;orthogonalLoop=1;jettySize=auto;html=1;" edge="1" parent="1" source="DngOZoNdHVbktWOdV5pQ-34" target="DngOZoNdHVbktWOdV5pQ-36">
          <mxGeometry relative="1" as="geometry" />
        </mxCell>
        <mxCell id="DngOZoNdHVbktWOdV5pQ-51" value="" style="edgeStyle=orthogonalEdgeStyle;rounded=0;orthogonalLoop=1;jettySize=auto;html=1;" edge="1" parent="1" source="DngOZoNdHVbktWOdV5pQ-34" target="DngOZoNdHVbktWOdV5pQ-50">
          <mxGeometry relative="1" as="geometry" />
        </mxCell>
        <mxCell id="DngOZoNdHVbktWOdV5pQ-34" value="质押式逆回购" style="whiteSpace=wrap;html=1;fontColor=light-dark(#231010, #ededed);rounded=0;" vertex="1" parent="1">
          <mxGeometry x="570" y="1490" width="120" height="60" as="geometry" />
        </mxCell>
        <mxCell id="DngOZoNdHVbktWOdV5pQ-39" value="" style="edgeStyle=orthogonalEdgeStyle;rounded=0;orthogonalLoop=1;jettySize=auto;html=1;" edge="1" parent="1" source="DngOZoNdHVbktWOdV5pQ-36" target="DngOZoNdHVbktWOdV5pQ-38">
          <mxGeometry relative="1" as="geometry" />
        </mxCell>
        <mxCell id="DngOZoNdHVbktWOdV5pQ-36" value="通过/驳回" style="whiteSpace=wrap;html=1;fontColor=light-dark(#231010, #ededed);rounded=0;" vertex="1" parent="1">
          <mxGeometry x="750" y="1490" width="120" height="60" as="geometry" />
        </mxCell>
        <mxCell id="DngOZoNdHVbktWOdV5pQ-41" value="" style="edgeStyle=orthogonalEdgeStyle;rounded=0;orthogonalLoop=1;jettySize=auto;html=1;" edge="1" parent="1" source="DngOZoNdHVbktWOdV5pQ-38" target="DngOZoNdHVbktWOdV5pQ-40">
          <mxGeometry relative="1" as="geometry" />
        </mxCell>
        <mxCell id="DngOZoNdHVbktWOdV5pQ-38" value="不存在债券信息——入库，返回" style="whiteSpace=wrap;html=1;fontColor=light-dark(#231010, #ededed);rounded=0;" vertex="1" parent="1">
          <mxGeometry x="930" y="1490" width="120" height="60" as="geometry" />
        </mxCell>
        <mxCell id="DngOZoNdHVbktWOdV5pQ-43" value="" style="edgeStyle=orthogonalEdgeStyle;rounded=0;orthogonalLoop=1;jettySize=auto;html=1;" edge="1" parent="1" source="DngOZoNdHVbktWOdV5pQ-40" target="DngOZoNdHVbktWOdV5pQ-42">
          <mxGeometry relative="1" as="geometry" />
        </mxCell>
        <mxCell id="DngOZoNdHVbktWOdV5pQ-45" value="" style="edgeStyle=orthogonalEdgeStyle;rounded=0;orthogonalLoop=1;jettySize=auto;html=1;" edge="1" parent="1" source="DngOZoNdHVbktWOdV5pQ-40" target="DngOZoNdHVbktWOdV5pQ-44">
          <mxGeometry relative="1" as="geometry" />
        </mxCell>
        <mxCell id="DngOZoNdHVbktWOdV5pQ-47" style="edgeStyle=orthogonalEdgeStyle;rounded=0;orthogonalLoop=1;jettySize=auto;html=1;exitX=1;exitY=0.5;exitDx=0;exitDy=0;entryX=0;entryY=0.5;entryDx=0;entryDy=0;" edge="1" parent="1" source="DngOZoNdHVbktWOdV5pQ-40" target="DngOZoNdHVbktWOdV5pQ-46">
          <mxGeometry relative="1" as="geometry" />
        </mxCell>
        <mxCell id="DngOZoNdHVbktWOdV5pQ-40" value="wind查询" style="whiteSpace=wrap;html=1;fontColor=light-dark(#231010, #ededed);rounded=0;" vertex="1" parent="1">
          <mxGeometry x="930" y="1590" width="120" height="60" as="geometry" />
        </mxCell>
        <mxCell id="DngOZoNdHVbktWOdV5pQ-42" value="查询行权收益率、企业性质、主体评级等" style="whiteSpace=wrap;html=1;fontColor=light-dark(#231010, #ededed);rounded=0;" vertex="1" parent="1">
          <mxGeometry x="1110" y="1590" width="120" height="60" as="geometry" />
        </mxCell>
        <mxCell id="DngOZoNdHVbktWOdV5pQ-49" value="" style="edgeStyle=orthogonalEdgeStyle;rounded=0;orthogonalLoop=1;jettySize=auto;html=1;" edge="1" parent="1" source="DngOZoNdHVbktWOdV5pQ-44" target="DngOZoNdHVbktWOdV5pQ-48">
          <mxGeometry relative="1" as="geometry" />
        </mxCell>
        <mxCell id="DngOZoNdHVbktWOdV5pQ-44" value="查询意见池" style="whiteSpace=wrap;html=1;fontColor=light-dark(#231010, #ededed);rounded=0;" vertex="1" parent="1">
          <mxGeometry x="930" y="1694" width="120" height="60" as="geometry" />
        </mxCell>
        <mxCell id="DngOZoNdHVbktWOdV5pQ-46" value="查询担保人全程、发行人全程等" style="rounded=0;whiteSpace=wrap;html=1;" vertex="1" parent="1">
          <mxGeometry x="1110" y="1694" width="120" height="60" as="geometry" />
        </mxCell>
        <mxCell id="DngOZoNdHVbktWOdV5pQ-48" value="数据封装；入库" style="whiteSpace=wrap;html=1;fontColor=light-dark(#231010, #ededed);rounded=0;" vertex="1" parent="1">
          <mxGeometry x="930" y="1780" width="120" height="60" as="geometry" />
        </mxCell>
        <mxCell id="DngOZoNdHVbktWOdV5pQ-53" value="" style="edgeStyle=orthogonalEdgeStyle;rounded=0;orthogonalLoop=1;jettySize=auto;html=1;" edge="1" parent="1" source="DngOZoNdHVbktWOdV5pQ-50" target="DngOZoNdHVbktWOdV5pQ-52">
          <mxGeometry relative="1" as="geometry" />
        </mxCell>
        <mxCell id="DngOZoNdHVbktWOdV5pQ-50" value="保存审批所需的标记信息" style="whiteSpace=wrap;html=1;fontColor=light-dark(#231010, #ededed);rounded=0;" vertex="1" parent="1">
          <mxGeometry x="570" y="1630" width="120" height="60" as="geometry" />
        </mxCell>
        <mxCell id="DngOZoNdHVbktWOdV5pQ-55" value="" style="edgeStyle=orthogonalEdgeStyle;rounded=0;orthogonalLoop=1;jettySize=auto;html=1;" edge="1" parent="1" source="DngOZoNdHVbktWOdV5pQ-52" target="DngOZoNdHVbktWOdV5pQ-54">
          <mxGeometry relative="1" as="geometry" />
        </mxCell>
        <mxCell id="DngOZoNdHVbktWOdV5pQ-52" value="预提交" style="whiteSpace=wrap;html=1;fontColor=light-dark(#231010, #ededed);rounded=0;" vertex="1" parent="1">
          <mxGeometry x="570" y="1730" width="120" height="60" as="geometry" />
        </mxCell>
        <mxCell id="DngOZoNdHVbktWOdV5pQ-54" value="策略模式——&lt;div&gt;质押券&lt;/div&gt;" style="whiteSpace=wrap;html=1;fontColor=light-dark(#231010, #ededed);rounded=0;" vertex="1" parent="1">
          <mxGeometry x="414" y="1730" width="120" height="60" as="geometry" />
        </mxCell>
      </root>
    </mxGraphModel>
  </diagram>
</mxfile>
